<?xml version="1.0" standalone="no"?>
<!DOCTYPE svg PUBLIC "-//W3C//DTD SVG 20010904//EN"
 "http://www.w3.org/TR/2001/REC-SVG-20010904/DTD/svg10.dtd">
<svg version="1.0" xmlns="http://www.w3.org/2000/svg"
 width="1052.000000pt" height="1052.000000pt" viewBox="0 0 1052.000000 1052.000000"
 preserveAspectRatio="xMidYMid meet">
<metadata>
Created by potrace 1.14, written by Peter Selinger 2001-2017
</metadata>
<g transform="translate(0.000000,1052.000000) scale(0.100000,-0.100000)"
fill="#000000" stroke="none">
<path d="M5138 7805 c-1 -1 -23 -6 -48 -9 -71 -10 -114 -18 -125 -25 -5 -3
-17 -6 -25 -8 -18 -2 -109 -44 -129 -58 -31 -23 -83 -80 -91 -100 -5 -12 -6
-37 -3 -56 2 -19 7 -60 10 -91 4 -51 3 -58 -14 -59 -34 -2 -68 -8 -188 -33
-133 -27 -141 -28 -205 -47 -25 -7 -49 -12 -54 -10 -4 1 -13 -3 -20 -8 -6 -5
-24 -12 -40 -15 -15 -3 -35 -11 -43 -18 -9 -7 -19 -12 -22 -11 -9 4 -74 -18
-90 -31 -8 -6 -16 -10 -18 -8 -2 1 -17 -5 -33 -13 -17 -9 -36 -13 -42 -9 -6 4
-8 3 -4 -4 3 -6 -8 -15 -29 -22 -19 -6 -35 -16 -35 -21 0 -6 -4 -7 -10 -4 -5
3 -10 2 -10 -4 0 -5 -8 -12 -19 -16 -10 -3 -31 -16 -47 -30 -15 -13 -30 -23
-33 -21 -3 1 -32 -24 -64 -56 -31 -32 -55 -58 -52 -58 3 0 -3 -10 -15 -22 -11
-12 -20 -28 -20 -35 0 -7 -5 -13 -12 -13 -6 0 -8 -3 -5 -7 4 -3 3 -11 -3 -17
-18 -22 -33 -163 -19 -172 4 -2 7 -53 8 -114 l2 -111 -28 7 c-15 4 -47 13 -70
19 -31 9 -55 10 -89 3 -89 -19 -188 -147 -253 -325 -16 -43 -32 -92 -35 -108
-3 -17 -10 -48 -15 -70 -22 -91 -30 -243 -18 -341 14 -110 82 -204 148 -204
26 0 36 -21 38 -80 2 -63 8 -114 16 -150 2 -14 8 -41 11 -60 11 -58 60 -193
95 -265 38 -75 137 -185 168 -185 28 0 30 -6 32 -97 1 -67 7 -92 30 -140 63
-128 201 -230 447 -329 48 -19 93 -36 102 -37 8 -2 20 -6 26 -9 6 -4 21 -9 35
-12 13 -3 67 -16 119 -30 52 -13 109 -27 125 -30 17 -2 55 -10 85 -16 30 -6
71 -13 90 -16 87 -10 80 3 80 -159 0 -172 14 -214 83 -262 36 -24 87 -51 102
-53 5 -1 19 -5 65 -20 93 -31 286 -43 415 -26 33 4 71 9 85 11 14 2 26 4 28 5
2 3 2 3 52 14 19 5 41 13 48 18 6 6 12 8 12 4 0 -3 24 8 53 25 58 34 107 85
107 111 0 9 3 19 8 21 4 3 6 63 5 134 -2 143 1 169 19 170 19 1 90 11 129 18
19 3 43 8 54 10 11 2 20 4 20 5 0 1 15 3 34 6 19 2 57 11 85 19 28 9 51 15 51
14 0 -1 20 4 45 11 25 7 56 14 70 17 14 2 29 8 34 14 6 5 16 9 24 9 26 0 257
98 276 117 4 5 11 8 14 8 10 1 88 52 119 78 136 115 164 177 167 360 1 115 2
122 21 119 10 -2 27 -13 37 -24 23 -27 95 -35 134 -15 44 23 107 86 142 142
59 96 121 275 138 400 3 28 8 58 10 68 5 28 5 136 0 200 -6 74 -34 172 -58
197 -10 11 -16 20 -12 20 6 0 -12 16 -51 48 -5 4 -26 8 -45 9 -19 1 -63 8 -97
17 -34 9 -77 18 -95 22 -18 3 -37 7 -43 8 -5 2 -27 6 -47 10 l-37 8 4 387 c1
212 5 419 7 459 2 39 1 72 -2 72 -3 0 -11 20 -18 45 -7 25 -16 45 -22 45 -5 0
-10 6 -10 14 0 7 -21 35 -47 62 -26 27 -46 53 -45 57 1 5 -2 6 -8 2 -5 -3 -10
-1 -10 4 0 6 -7 11 -15 11 -8 0 -15 7 -15 16 0 8 -4 12 -10 9 -5 -3 -10 -3
-10 2 0 4 -25 21 -55 38 -30 16 -55 33 -55 37 0 4 -8 8 -18 8 -10 0 -24 6 -30
13 -7 6 -16 12 -20 13 -4 0 -20 7 -37 14 -16 7 -33 13 -37 12 -5 -1 -8 3 -8 8
0 5 -3 9 -7 8 -7 -2 -81 22 -128 43 -16 7 -62 20 -117 35 -5 1 -10 3 -13 4 -3
1 -8 3 -12 4 -42 10 -72 17 -91 21 -13 2 -33 7 -45 11 -12 4 -35 9 -52 10 -16
1 -30 3 -30 4 0 4 -80 18 -127 22 -16 1 -28 6 -28 10 0 4 -6 7 -12 6 -16 -4
-19 57 -5 116 5 24 7 55 3 70 -9 35 -58 90 -109 119 -39 23 -189 78 -205 76
-4 -1 -9 0 -12 1 -22 9 -333 23 -342 15z"/>
</g>
</svg>
